<svg xmlns="http://www.w3.org/2000/svg" width="345" height="732" viewBox="0 0 345 732" fill="none">
<g filter="url(#filter0_d_238_123)">
<rect x="4" width="337" height="724" rx="10" fill="white"/>
</g>
<g filter="url(#filter1_d_238_123)">
<rect x="180" y="100" width="122" height="59" rx="10" fill="#F59999"/>
</g>
<g filter="url(#filter2_d_238_123)">
<rect x="43" y="100" width="122" height="59" rx="10" fill="#83F3DF"/>
</g>
<g filter="url(#filter3_d_238_123)">
<rect x="180" y="420" width="122" height="59" rx="10" fill="#D1B2FF"/>
</g>
<g filter="url(#filter4_d_238_123)">
<rect x="43" y="420" width="122" height="59" rx="10" fill="#83CBF3"/>
</g>
<g filter="url(#filter5_d_238_123)">
<rect x="180" y="340" width="122" height="59" rx="10" fill="#83CBF3"/>
</g>
<g filter="url(#filter6_d_238_123)">
<rect x="43" y="340" width="122" height="59" rx="10" fill="#83F3DF"/>
</g>
<g filter="url(#filter7_d_238_123)">
<rect x="180" y="260" width="122" height="59" rx="10" fill="#FFD8B1"/>
</g>
<g filter="url(#filter8_d_238_123)">
<rect x="43" y="260" width="122" height="59" rx="10" fill="#D1B2FF"/>
</g>
<g filter="url(#filter9_d_238_123)">
<rect x="180" y="180" width="122" height="59" rx="10" fill="#83F3DF"/>
</g>
<g filter="url(#filter10_d_238_123)">
<rect x="43" y="180" width="122" height="59" rx="10" fill="#83CBF3"/>
</g>
<rect x="4" width="337" height="63" rx="10" fill="#FFD8B1"/>
<circle cx="277" cy="661" r="29" fill="#83F3DF"/>
<path d="M288.656 662.304H278.432V672.672H274.352V662.304H264.176V658.608H274.352V648.192H278.432V658.608H288.656V662.304Z" fill="white"/>
<g filter="url(#filter11_d_238_123)">
<path d="M49.388 27.756C49.964 26.82 50.792 26.064 51.872 25.488C52.952 24.912 54.188 24.624 55.58 24.624C57.236 24.624 58.736 25.044 60.08 25.884C61.424 26.724 62.48 27.924 63.248 29.484C64.04 31.044 64.436 32.856 64.436 34.92C64.436 36.984 64.04 38.808 63.248 40.392C62.48 41.952 61.424 43.164 60.08 44.028C58.736 44.868 57.236 45.288 55.58 45.288C54.164 45.288 52.928 45.012 51.872 44.46C50.816 43.884 49.988 43.128 49.388 42.192V45H43.232V18.36H49.388V27.756ZM58.172 34.92C58.172 33.384 57.74 32.184 56.876 31.32C56.036 30.432 54.992 29.988 53.744 29.988C52.52 29.988 51.476 30.432 50.612 31.32C49.772 32.208 49.352 33.42 49.352 34.956C49.352 36.492 49.772 37.704 50.612 38.592C51.476 39.48 52.52 39.924 53.744 39.924C54.968 39.924 56.012 39.48 56.876 38.592C57.74 37.68 58.172 36.456 58.172 34.92ZM76.8096 45.288C74.8416 45.288 73.0656 44.868 71.4816 44.028C69.9216 43.188 68.6856 41.988 67.7736 40.428C66.8856 38.868 66.4416 37.044 66.4416 34.956C66.4416 32.892 66.8976 31.08 67.8096 29.52C68.7216 27.936 69.9696 26.724 71.5536 25.884C73.1376 25.044 74.9136 24.624 76.8816 24.624C78.8496 24.624 80.6256 25.044 82.2096 25.884C83.7936 26.724 85.0416 27.936 85.9536 29.52C86.8656 31.08 87.3216 32.892 87.3216 34.956C87.3216 37.02 86.8536 38.844 85.9176 40.428C85.0056 41.988 83.7456 43.188 82.1376 44.028C80.5536 44.868 78.7776 45.288 76.8096 45.288ZM76.8096 39.96C77.9856 39.96 78.9816 39.528 79.7976 38.664C80.6376 37.8 81.0576 36.564 81.0576 34.956C81.0576 33.348 80.6496 32.112 79.8336 31.248C79.0416 30.384 78.0576 29.952 76.8816 29.952C75.6816 29.952 74.6856 30.384 73.8936 31.248C73.1016 32.088 72.7056 33.324 72.7056 34.956C72.7056 36.564 73.0896 37.8 73.8576 38.664C74.6496 39.528 75.6336 39.96 76.8096 39.96ZM110.423 24.912V45H104.267V42.264C103.643 43.152 102.791 43.872 101.711 44.424C100.655 44.952 99.4795 45.216 98.1835 45.216C96.6475 45.216 95.2915 44.88 94.1155 44.208C92.9395 43.512 92.0275 42.516 91.3795 41.22C90.7315 39.924 90.4075 38.4 90.4075 36.648V24.912H96.5275V35.82C96.5275 37.164 96.8755 38.208 97.5715 38.952C98.2675 39.696 99.2035 40.068 100.379 40.068C101.579 40.068 102.527 39.696 103.223 38.952C103.919 38.208 104.267 37.164 104.267 35.82V24.912H110.423ZM127.085 24.696C129.437 24.696 131.309 25.464 132.701 27C134.117 28.512 134.825 30.6 134.825 33.264V45H128.705V34.092C128.705 32.748 128.357 31.704 127.661 30.96C126.965 30.216 126.029 29.844 124.853 29.844C123.677 29.844 122.741 30.216 122.045 30.96C121.349 31.704 121.001 32.748 121.001 34.092V45H114.845V24.912H121.001V27.576C121.625 26.688 122.465 25.992 123.521 25.488C124.577 24.96 125.765 24.696 127.085 24.696ZM150.299 39.78V45H147.167C144.935 45 143.195 44.46 141.947 43.38C140.699 42.276 140.075 40.488 140.075 38.016V30.024H137.627V24.912H140.075V20.016H146.231V24.912H150.263V30.024H146.231V38.088C146.231 38.688 146.375 39.12 146.663 39.384C146.951 39.648 147.431 39.78 148.103 39.78H150.299ZM174.248 24.912L161.648 54.54H155.024L159.632 44.316L151.46 24.912H158.336L162.98 37.476L167.588 24.912H174.248ZM182.63 27.756C183.206 26.82 184.034 26.064 185.114 25.488C186.194 24.912 187.43 24.624 188.822 24.624C190.478 24.624 191.978 25.044 193.322 25.884C194.666 26.724 195.722 27.924 196.49 29.484C197.282 31.044 197.678 32.856 197.678 34.92C197.678 36.984 197.282 38.808 196.49 40.392C195.722 41.952 194.666 43.164 193.322 44.028C191.978 44.868 190.478 45.288 188.822 45.288C187.406 45.288 186.17 45.012 185.114 44.46C184.058 43.884 183.23 43.128 182.63 42.192V45H176.474V18.36H182.63V27.756ZM191.414 34.92C191.414 33.384 190.982 32.184 190.118 31.32C189.278 30.432 188.234 29.988 186.986 29.988C185.762 29.988 184.718 30.432 183.854 31.32C183.014 32.208 182.594 33.42 182.594 34.956C182.594 36.492 183.014 37.704 183.854 38.592C184.718 39.48 185.762 39.924 186.986 39.924C188.21 39.924 189.254 39.48 190.118 38.592C190.982 37.68 191.414 36.456 191.414 34.92ZM210.052 45.288C208.084 45.288 206.308 44.868 204.724 44.028C203.164 43.188 201.928 41.988 201.016 40.428C200.128 38.868 199.684 37.044 199.684 34.956C199.684 32.892 200.14 31.08 201.052 29.52C201.964 27.936 203.212 26.724 204.796 25.884C206.38 25.044 208.156 24.624 210.124 24.624C212.092 24.624 213.868 25.044 215.452 25.884C217.036 26.724 218.284 27.936 219.196 29.52C220.108 31.08 220.564 32.892 220.564 34.956C220.564 37.02 220.096 38.844 219.16 40.428C218.248 41.988 216.988 43.188 215.38 44.028C213.796 44.868 212.02 45.288 210.052 45.288ZM210.052 39.96C211.228 39.96 212.224 39.528 213.04 38.664C213.88 37.8 214.3 36.564 214.3 34.956C214.3 33.348 213.892 32.112 213.076 31.248C212.284 30.384 211.3 29.952 210.124 29.952C208.924 29.952 207.928 30.384 207.136 31.248C206.344 32.088 205.948 33.324 205.948 34.956C205.948 36.564 206.332 37.8 207.1 38.664C207.892 39.528 208.876 39.96 210.052 39.96ZM222.606 34.92C222.606 32.856 222.99 31.044 223.758 29.484C224.55 27.924 225.618 26.724 226.962 25.884C228.306 25.044 229.806 24.624 231.462 24.624C232.878 24.624 234.114 24.912 235.17 25.488C236.25 26.064 237.078 26.82 237.654 27.756V24.912H243.81V45H237.654V42.156C237.054 43.092 236.214 43.848 235.134 44.424C234.078 45 232.842 45.288 231.426 45.288C229.794 45.288 228.306 44.868 226.962 44.028C225.618 43.164 224.55 41.952 223.758 40.392C222.99 38.808 222.606 36.984 222.606 34.92ZM237.654 34.956C237.654 33.42 237.222 32.208 236.358 31.32C235.518 30.432 234.486 29.988 233.262 29.988C232.038 29.988 230.994 30.432 230.13 31.32C229.29 32.184 228.87 33.384 228.87 34.92C228.87 36.456 229.29 37.68 230.13 38.592C230.994 39.48 232.038 39.924 233.262 39.924C234.486 39.924 235.518 39.48 236.358 38.592C237.222 37.704 237.654 36.492 237.654 34.956ZM254.419 28.26C255.139 27.156 256.039 26.292 257.119 25.668C258.199 25.02 259.399 24.696 260.719 24.696V31.212H259.027C257.491 31.212 256.339 31.548 255.571 32.22C254.803 32.868 254.419 34.02 254.419 35.676V45H248.263V24.912H254.419V28.26ZM262.438 34.92C262.438 32.856 262.822 31.044 263.59 29.484C264.382 27.924 265.45 26.724 266.794 25.884C268.138 25.044 269.638 24.624 271.294 24.624C272.614 24.624 273.814 24.9 274.894 25.452C275.998 26.004 276.862 26.748 277.486 27.684V18.36H283.642V45H277.486V42.12C276.91 43.08 276.082 43.848 275.002 44.424C273.946 45 272.71 45.288 271.294 45.288C269.638 45.288 268.138 44.868 266.794 44.028C265.45 43.164 264.382 41.952 263.59 40.392C262.822 38.808 262.438 36.984 262.438 34.92ZM277.486 34.956C277.486 33.42 277.054 32.208 276.19 31.32C275.35 30.432 274.318 29.988 273.094 29.988C271.87 29.988 270.826 30.432 269.962 31.32C269.122 32.184 268.702 33.384 268.702 34.92C268.702 36.456 269.122 37.68 269.962 38.592C270.826 39.48 271.87 39.924 273.094 39.924C274.318 39.924 275.35 39.48 276.19 38.592C277.054 37.704 277.486 36.492 277.486 34.956ZM295.115 19.332C296.627 19.332 297.971 19.668 299.147 20.34C300.347 20.988 301.271 21.9 301.919 23.076C302.591 24.252 302.927 25.596 302.927 27.108C302.927 28.596 302.591 29.94 301.919 31.14C301.271 32.316 300.347 33.24 299.147 33.912C297.971 34.56 296.627 34.884 295.115 34.884C293.603 34.884 292.247 34.56 291.047 33.912C289.871 33.24 288.947 32.316 288.275 31.14C287.603 29.94 287.267 28.596 287.267 27.108C287.267 25.596 287.603 24.252 288.275 23.076C288.947 21.9 289.871 20.988 291.047 20.34C292.247 19.668 293.603 19.332 295.115 19.332ZM295.115 32.868C296.843 32.868 298.223 32.34 299.255 31.284C300.287 30.228 300.803 28.836 300.803 27.108C300.803 25.38 300.287 23.988 299.255 22.932C298.223 21.876 296.843 21.348 295.115 21.348C293.387 21.348 292.007 21.876 290.975 22.932C289.943 23.988 289.427 25.38 289.427 27.108C289.427 28.836 289.943 30.228 290.975 31.284C292.007 32.34 293.387 32.868 295.115 32.868ZM298.607 25.668C298.607 26.172 298.475 26.616 298.211 27C297.971 27.384 297.635 27.672 297.203 27.864L299.039 30.816H296.087L294.647 28.152H294.431V30.816H291.839V23.184H295.835C296.675 23.184 297.347 23.412 297.851 23.868C298.355 24.324 298.607 24.924 298.607 25.668ZM294.395 26.388H295.403C295.787 26.388 295.979 26.208 295.979 25.848C295.979 25.512 295.787 25.344 295.403 25.344H294.395V26.388Z" fill="#83CBF3"/>
</g>
<path d="M105.986 513.264H102.318L101.73 515H99.224L102.78 505.172H105.552L109.108 515H106.574L105.986 513.264ZM105.37 511.416L104.152 507.818L102.948 511.416H105.37ZM113.368 515.112C112.687 515.112 112.08 514.995 111.548 514.762C111.016 514.529 110.596 514.211 110.288 513.81C109.98 513.399 109.808 512.942 109.77 512.438H112.136C112.164 512.709 112.29 512.928 112.514 513.096C112.738 513.264 113.014 513.348 113.34 513.348C113.639 513.348 113.868 513.292 114.026 513.18C114.194 513.059 114.278 512.905 114.278 512.718C114.278 512.494 114.162 512.331 113.928 512.228C113.695 512.116 113.317 511.995 112.794 511.864C112.234 511.733 111.768 511.598 111.394 511.458C111.021 511.309 110.699 511.08 110.428 510.772C110.158 510.455 110.022 510.03 110.022 509.498C110.022 509.05 110.144 508.644 110.386 508.28C110.638 507.907 111.002 507.613 111.478 507.398C111.964 507.183 112.538 507.076 113.2 507.076C114.18 507.076 114.95 507.319 115.51 507.804C116.08 508.289 116.406 508.933 116.49 509.736H114.278C114.241 509.465 114.12 509.251 113.914 509.092C113.718 508.933 113.457 508.854 113.13 508.854C112.85 508.854 112.636 508.91 112.486 509.022C112.337 509.125 112.262 509.269 112.262 509.456C112.262 509.68 112.379 509.848 112.612 509.96C112.855 510.072 113.228 510.184 113.732 510.296C114.311 510.445 114.782 510.595 115.146 510.744C115.51 510.884 115.828 511.117 116.098 511.444C116.378 511.761 116.523 512.191 116.532 512.732C116.532 513.189 116.402 513.6 116.14 513.964C115.888 514.319 115.52 514.599 115.034 514.804C114.558 515.009 114.003 515.112 113.368 515.112ZM121.175 515.112C120.494 515.112 119.887 514.995 119.355 514.762C118.823 514.529 118.403 514.211 118.095 513.81C117.787 513.399 117.614 512.942 117.577 512.438H119.943C119.971 512.709 120.097 512.928 120.321 513.096C120.545 513.264 120.82 513.348 121.147 513.348C121.446 513.348 121.674 513.292 121.833 513.18C122.001 513.059 122.085 512.905 122.085 512.718C122.085 512.494 121.968 512.331 121.735 512.228C121.502 512.116 121.124 511.995 120.601 511.864C120.041 511.733 119.574 511.598 119.201 511.458C118.828 511.309 118.506 511.08 118.235 510.772C117.964 510.455 117.829 510.03 117.829 509.498C117.829 509.05 117.95 508.644 118.193 508.28C118.445 507.907 118.809 507.613 119.285 507.398C119.77 507.183 120.344 507.076 121.007 507.076C121.987 507.076 122.757 507.319 123.317 507.804C123.886 508.289 124.213 508.933 124.297 509.736H122.085C122.048 509.465 121.926 509.251 121.721 509.092C121.525 508.933 121.264 508.854 120.937 508.854C120.657 508.854 120.442 508.91 120.293 509.022C120.144 509.125 120.069 509.269 120.069 509.456C120.069 509.68 120.186 509.848 120.419 509.96C120.662 510.072 121.035 510.184 121.539 510.296C122.118 510.445 122.589 510.595 122.953 510.744C123.317 510.884 123.634 511.117 123.905 511.444C124.185 511.761 124.33 512.191 124.339 512.732C124.339 513.189 124.208 513.6 123.947 513.964C123.695 514.319 123.326 514.599 122.841 514.804C122.365 515.009 121.81 515.112 121.175 515.112ZM127.008 506.376C126.588 506.376 126.242 506.255 125.972 506.012C125.71 505.76 125.58 505.452 125.58 505.088C125.58 504.715 125.71 504.407 125.972 504.164C126.242 503.912 126.588 503.786 127.008 503.786C127.418 503.786 127.754 503.912 128.016 504.164C128.286 504.407 128.422 504.715 128.422 505.088C128.422 505.452 128.286 505.76 128.016 506.012C127.754 506.255 127.418 506.376 127.008 506.376ZM128.198 507.188V515H125.804V507.188H128.198ZM132.9 507.076C133.451 507.076 133.932 507.188 134.342 507.412C134.762 507.636 135.084 507.93 135.308 508.294V507.188H137.702V514.986C137.702 515.705 137.558 516.353 137.268 516.932C136.988 517.52 136.554 517.987 135.966 518.332C135.388 518.677 134.664 518.85 133.796 518.85C132.639 518.85 131.701 518.575 130.982 518.024C130.264 517.483 129.853 516.745 129.75 515.812H132.116C132.191 516.111 132.368 516.344 132.648 516.512C132.928 516.689 133.274 516.778 133.684 516.778C134.179 516.778 134.571 516.633 134.86 516.344C135.159 516.064 135.308 515.611 135.308 514.986V513.88C135.075 514.244 134.753 514.543 134.342 514.776C133.932 515 133.451 515.112 132.9 515.112C132.256 515.112 131.673 514.949 131.15 514.622C130.628 514.286 130.212 513.815 129.904 513.208C129.606 512.592 129.456 511.883 129.456 511.08C129.456 510.277 129.606 509.573 129.904 508.966C130.212 508.359 130.628 507.893 131.15 507.566C131.673 507.239 132.256 507.076 132.9 507.076ZM135.308 511.094C135.308 510.497 135.14 510.025 134.804 509.68C134.478 509.335 134.076 509.162 133.6 509.162C133.124 509.162 132.718 509.335 132.382 509.68C132.056 510.016 131.892 510.483 131.892 511.08C131.892 511.677 132.056 512.153 132.382 512.508C132.718 512.853 133.124 513.026 133.6 513.026C134.076 513.026 134.478 512.853 134.804 512.508C135.14 512.163 135.308 511.691 135.308 511.094ZM144.194 507.104C145.109 507.104 145.837 507.403 146.378 508C146.929 508.588 147.204 509.4 147.204 510.436V515H144.824V510.758C144.824 510.235 144.689 509.829 144.418 509.54C144.148 509.251 143.784 509.106 143.326 509.106C142.869 509.106 142.505 509.251 142.234 509.54C141.964 509.829 141.828 510.235 141.828 510.758V515H139.434V507.188H141.828V508.224C142.071 507.879 142.398 507.608 142.808 507.412C143.219 507.207 143.681 507.104 144.194 507.104ZM155.755 509.176H154.467V515H152.073V509.176H151.205V507.188H152.073V506.964C152.073 506.003 152.348 505.275 152.899 504.78C153.449 504.276 154.257 504.024 155.321 504.024C155.498 504.024 155.629 504.029 155.713 504.038V506.068C155.255 506.04 154.933 506.105 154.747 506.264C154.56 506.423 154.467 506.707 154.467 507.118V507.188H155.755V509.176ZM166.848 507.104C167.818 507.104 168.588 507.398 169.158 507.986C169.736 508.574 170.026 509.391 170.026 510.436V515H167.646V510.758C167.646 510.254 167.51 509.867 167.24 509.596C166.978 509.316 166.614 509.176 166.148 509.176C165.681 509.176 165.312 509.316 165.042 509.596C164.78 509.867 164.65 510.254 164.65 510.758V515H162.27V510.758C162.27 510.254 162.134 509.867 161.864 509.596C161.602 509.316 161.238 509.176 160.772 509.176C160.305 509.176 159.936 509.316 159.666 509.596C159.404 509.867 159.274 510.254 159.274 510.758V515H156.88V507.188H159.274V508.168C159.516 507.841 159.834 507.585 160.226 507.398C160.618 507.202 161.061 507.104 161.556 507.104C162.144 507.104 162.666 507.23 163.124 507.482C163.59 507.734 163.954 508.093 164.216 508.56C164.486 508.131 164.855 507.781 165.322 507.51C165.788 507.239 166.297 507.104 166.848 507.104ZM174.094 504.64V515H171.7V504.64H174.094ZM183.809 507.188L178.909 518.71H176.333L178.125 514.734L174.947 507.188H177.621L179.427 512.074L181.219 507.188H183.809ZM197.609 507.104C198.58 507.104 199.35 507.398 199.919 507.986C200.498 508.574 200.787 509.391 200.787 510.436V515H198.407V510.758C198.407 510.254 198.272 509.867 198.001 509.596C197.74 509.316 197.376 509.176 196.909 509.176C196.443 509.176 196.074 509.316 195.803 509.596C195.542 509.867 195.411 510.254 195.411 510.758V515H193.031V510.758C193.031 510.254 192.896 509.867 192.625 509.596C192.364 509.316 192 509.176 191.533 509.176C191.067 509.176 190.698 509.316 190.427 509.596C190.166 509.867 190.035 510.254 190.035 510.758V515H187.641V507.188H190.035V508.168C190.278 507.841 190.595 507.585 190.987 507.398C191.379 507.202 191.823 507.104 192.317 507.104C192.905 507.104 193.428 507.23 193.885 507.482C194.352 507.734 194.716 508.093 194.977 508.56C195.248 508.131 195.617 507.781 196.083 507.51C196.55 507.239 197.059 507.104 197.609 507.104ZM209.826 510.968C209.826 511.192 209.812 511.425 209.784 511.668H204.366C204.403 512.153 204.557 512.527 204.828 512.788C205.108 513.04 205.448 513.166 205.85 513.166C206.447 513.166 206.862 512.914 207.096 512.41H209.644C209.513 512.923 209.275 513.385 208.93 513.796C208.594 514.207 208.169 514.529 207.656 514.762C207.142 514.995 206.568 515.112 205.934 515.112C205.168 515.112 204.487 514.949 203.89 514.622C203.292 514.295 202.826 513.829 202.49 513.222C202.154 512.615 201.986 511.906 201.986 511.094C201.986 510.282 202.149 509.573 202.476 508.966C202.812 508.359 203.278 507.893 203.876 507.566C204.473 507.239 205.159 507.076 205.934 507.076C206.69 507.076 207.362 507.235 207.95 507.552C208.538 507.869 208.995 508.322 209.322 508.91C209.658 509.498 209.826 510.184 209.826 510.968ZM207.376 510.338C207.376 509.927 207.236 509.601 206.956 509.358C206.676 509.115 206.326 508.994 205.906 508.994C205.504 508.994 205.164 509.111 204.884 509.344C204.613 509.577 204.445 509.909 204.38 510.338H207.376ZM221.057 507.104C222.027 507.104 222.797 507.398 223.367 507.986C223.945 508.574 224.235 509.391 224.235 510.436V515H221.855V510.758C221.855 510.254 221.719 509.867 221.449 509.596C221.187 509.316 220.823 509.176 220.357 509.176C219.89 509.176 219.521 509.316 219.251 509.596C218.989 509.867 218.859 510.254 218.859 510.758V515H216.479V510.758C216.479 510.254 216.343 509.867 216.073 509.596C215.811 509.316 215.447 509.176 214.981 509.176C214.514 509.176 214.145 509.316 213.875 509.596C213.613 509.867 213.483 510.254 213.483 510.758V515H211.089V507.188H213.483V508.168C213.725 507.841 214.043 507.585 214.435 507.398C214.827 507.202 215.27 507.104 215.765 507.104C216.353 507.104 216.875 507.23 217.333 507.482C217.799 507.734 218.163 508.093 218.425 508.56C218.695 508.131 219.064 507.781 219.531 507.51C219.997 507.239 220.506 507.104 221.057 507.104ZM228.303 508.294C228.527 507.93 228.849 507.636 229.269 507.412C229.689 507.188 230.17 507.076 230.711 507.076C231.355 507.076 231.938 507.239 232.461 507.566C232.984 507.893 233.394 508.359 233.693 508.966C234.001 509.573 234.155 510.277 234.155 511.08C234.155 511.883 234.001 512.592 233.693 513.208C233.394 513.815 232.984 514.286 232.461 514.622C231.938 514.949 231.355 515.112 230.711 515.112C230.16 515.112 229.68 515.005 229.269 514.79C228.858 514.566 228.536 514.272 228.303 513.908V515H225.909V504.64H228.303V508.294ZM231.719 511.08C231.719 510.483 231.551 510.016 231.215 509.68C230.888 509.335 230.482 509.162 229.997 509.162C229.521 509.162 229.115 509.335 228.779 509.68C228.452 510.025 228.289 510.497 228.289 511.094C228.289 511.691 228.452 512.163 228.779 512.508C229.115 512.853 229.521 513.026 229.997 513.026C230.473 513.026 230.879 512.853 231.215 512.508C231.551 512.153 231.719 511.677 231.719 511.08ZM242.775 510.968C242.775 511.192 242.761 511.425 242.733 511.668H237.315C237.352 512.153 237.506 512.527 237.777 512.788C238.057 513.04 238.398 513.166 238.799 513.166C239.396 513.166 239.812 512.914 240.045 512.41H242.593C242.462 512.923 242.224 513.385 241.879 513.796C241.543 514.207 241.118 514.529 240.605 514.762C240.092 514.995 239.518 515.112 238.883 515.112C238.118 515.112 237.436 514.949 236.839 514.622C236.242 514.295 235.775 513.829 235.439 513.222C235.103 512.615 234.935 511.906 234.935 511.094C234.935 510.282 235.098 509.573 235.425 508.966C235.761 508.359 236.228 507.893 236.825 507.566C237.422 507.239 238.108 507.076 238.883 507.076C239.639 507.076 240.311 507.235 240.899 507.552C241.487 507.869 241.944 508.322 242.271 508.91C242.607 509.498 242.775 510.184 242.775 510.968ZM240.325 510.338C240.325 509.927 240.185 509.601 239.905 509.358C239.625 509.115 239.275 508.994 238.855 508.994C238.454 508.994 238.113 509.111 237.833 509.344C237.562 509.577 237.394 509.909 237.329 510.338H240.325ZM246.432 508.49C246.712 508.061 247.062 507.725 247.482 507.482C247.902 507.23 248.369 507.104 248.882 507.104V509.638H248.224C247.627 509.638 247.179 509.769 246.88 510.03C246.581 510.282 246.432 510.73 246.432 511.374V515H244.038V507.188H246.432V508.49Z" fill="black"/>
<circle cx="47.5" cy="551.5" r="20.5" fill="#E753FF"/>
<circle cx="298.5" cy="551.5" r="20.5" fill="#ED1515"/>
<circle cx="236.5" cy="551.5" r="20.5" fill="#5057FF"/>
<circle cx="174.5" cy="551.5" r="20.5" fill="#B9B9B9"/>
<circle cx="109.5" cy="551.5" r="20.5" fill="#92D700"/>
<path d="M302.672 548.48C302.368 547.92 301.928 547.496 301.352 547.208C300.792 546.904 300.128 546.752 299.36 546.752C298.032 546.752 296.968 547.192 296.168 548.072C295.368 548.936 294.968 550.096 294.968 551.552C294.968 553.104 295.384 554.32 296.216 555.2C297.064 556.064 298.224 556.496 299.696 556.496C300.704 556.496 301.552 556.24 302.24 555.728C302.944 555.216 303.456 554.48 303.776 553.52H298.568V550.496H307.496V554.312C307.192 555.336 306.672 556.288 305.936 557.168C305.216 558.048 304.296 558.76 303.176 559.304C302.056 559.848 300.792 560.12 299.384 560.12C297.72 560.12 296.232 559.76 294.92 559.04C293.624 558.304 292.608 557.288 291.872 555.992C291.152 554.696 290.792 553.216 290.792 551.552C290.792 549.888 291.152 548.408 291.872 547.112C292.608 545.8 293.624 544.784 294.92 544.064C296.216 543.328 297.696 542.96 299.36 542.96C301.376 542.96 303.072 543.448 304.448 544.424C305.84 545.4 306.76 546.752 307.208 548.48H302.672Z" fill="white"/>
<g filter="url(#filter12_d_238_123)">
<circle cx="282.5" cy="462.5" r="10.5" fill="#ED1515"/>
</g>
<path d="M284.448 460.32C284.245 459.947 283.952 459.664 283.568 459.472C283.195 459.269 282.752 459.168 282.24 459.168C281.355 459.168 280.645 459.461 280.112 460.048C279.579 460.624 279.312 461.397 279.312 462.368C279.312 463.403 279.589 464.213 280.144 464.8C280.709 465.376 281.483 465.664 282.464 465.664C283.136 465.664 283.701 465.493 284.16 465.152C284.629 464.811 284.971 464.32 285.184 463.68H281.712V461.664H287.664V464.208C287.461 464.891 287.115 465.525 286.624 466.112C286.144 466.699 285.531 467.173 284.784 467.536C284.037 467.899 283.195 468.08 282.256 468.08C281.147 468.08 280.155 467.84 279.28 467.36C278.416 466.869 277.739 466.192 277.248 465.328C276.768 464.464 276.528 463.477 276.528 462.368C276.528 461.259 276.768 460.272 277.248 459.408C277.739 458.533 278.416 457.856 279.28 457.376C280.144 456.885 281.131 456.64 282.24 456.64C283.584 456.64 284.715 456.965 285.632 457.616C286.56 458.267 287.173 459.168 287.472 460.32H284.448Z" fill="white"/>
<path d="M118.568 543.152V560H114.464V549.896L110.696 560H107.384L103.592 549.872V560H99.488V543.152H104.336L109.064 554.816L113.744 543.152H118.568Z" fill="white"/>
<g filter="url(#filter13_d_238_123)">
<circle cx="146.5" cy="302.5" r="10.5" fill="#92D700"/>
</g>
<path d="M152.712 296.768V308H149.976V301.264L147.464 308H145.256L142.728 301.248V308H139.992V296.768H143.224L146.376 304.544L149.496 296.768H152.712Z" fill="white"/>
<g filter="url(#filter14_d_238_123)">
<circle cx="146.5" cy="382.5" r="10.5" fill="#92D700"/>
</g>
<path d="M152.712 376.768V388H149.976V381.264L147.464 388H145.256L142.728 381.248V388H139.992V376.768H143.224L146.376 384.544L149.496 376.768H152.712Z" fill="white"/>
<path d="M173.8 543.152C175.576 543.152 177.128 543.504 178.456 544.208C179.784 544.912 180.808 545.904 181.528 547.184C182.264 548.448 182.632 549.912 182.632 551.576C182.632 553.224 182.264 554.688 181.528 555.968C180.808 557.248 179.776 558.24 178.432 558.944C177.104 559.648 175.56 560 173.8 560H167.488V543.152H173.8ZM173.536 556.448C175.088 556.448 176.296 556.024 177.16 555.176C178.024 554.328 178.456 553.128 178.456 551.576C178.456 550.024 178.024 548.816 177.16 547.952C176.296 547.088 175.088 546.656 173.536 546.656H171.592V556.448H173.536Z" fill="white"/>
<g filter="url(#filter15_d_238_123)">
<circle cx="282.5" cy="304.5" r="10.5" fill="#B9B9B9"/>
</g>
<path d="M282.2 298.768C283.384 298.768 284.419 299.003 285.304 299.472C286.189 299.941 286.872 300.603 287.352 301.456C287.843 302.299 288.088 303.275 288.088 304.384C288.088 305.483 287.843 306.459 287.352 307.312C286.872 308.165 286.184 308.827 285.288 309.296C284.403 309.765 283.373 310 282.2 310H277.992V298.768H282.2ZM282.024 307.632C283.059 307.632 283.864 307.349 284.44 306.784C285.016 306.219 285.304 305.419 285.304 304.384C285.304 303.349 285.016 302.544 284.44 301.968C283.864 301.392 283.059 301.104 282.024 301.104H280.728V307.632H282.024Z" fill="white"/>
<path d="M47.584 560.168C46.352 560.168 45.248 559.968 44.272 559.568C43.296 559.168 42.512 558.576 41.92 557.792C41.344 557.008 41.04 556.064 41.008 554.96H45.376C45.44 555.584 45.656 556.064 46.024 556.4C46.392 556.72 46.872 556.88 47.464 556.88C48.072 556.88 48.552 556.744 48.904 556.472C49.256 556.184 49.432 555.792 49.432 555.296C49.432 554.88 49.288 554.536 49 554.264C48.728 553.992 48.384 553.768 47.968 553.592C47.568 553.416 46.992 553.216 46.24 552.992C45.152 552.656 44.264 552.32 43.576 551.984C42.888 551.648 42.296 551.152 41.8 550.496C41.304 549.84 41.056 548.984 41.056 547.928C41.056 546.36 41.624 545.136 42.76 544.256C43.896 543.36 45.376 542.912 47.2 542.912C49.056 542.912 50.552 543.36 51.688 544.256C52.824 545.136 53.432 546.368 53.512 547.952H49.072C49.04 547.408 48.84 546.984 48.472 546.68C48.104 546.36 47.632 546.2 47.056 546.2C46.56 546.2 46.16 546.336 45.856 546.608C45.552 546.864 45.4 547.24 45.4 547.736C45.4 548.28 45.656 548.704 46.168 549.008C46.68 549.312 47.48 549.64 48.568 549.992C49.656 550.36 50.536 550.712 51.208 551.048C51.896 551.384 52.488 551.872 52.984 552.512C53.48 553.152 53.728 553.976 53.728 554.984C53.728 555.944 53.48 556.816 52.984 557.6C52.504 558.384 51.8 559.008 50.872 559.472C49.944 559.936 48.848 560.168 47.584 560.168Z" fill="white"/>
<g filter="url(#filter16_d_238_123)">
<circle cx="146.5" cy="462.5" r="10.5" fill="#E753FF"/>
</g>
<path d="M147.056 468.112C146.235 468.112 145.499 467.979 144.848 467.712C144.197 467.445 143.675 467.051 143.28 466.528C142.896 466.005 142.693 465.376 142.672 464.64H145.584C145.627 465.056 145.771 465.376 146.016 465.6C146.261 465.813 146.581 465.92 146.976 465.92C147.381 465.92 147.701 465.829 147.936 465.648C148.171 465.456 148.288 465.195 148.288 464.864C148.288 464.587 148.192 464.357 148 464.176C147.819 463.995 147.589 463.845 147.312 463.728C147.045 463.611 146.661 463.477 146.16 463.328C145.435 463.104 144.843 462.88 144.384 462.656C143.925 462.432 143.531 462.101 143.2 461.664C142.869 461.227 142.704 460.656 142.704 459.952C142.704 458.907 143.083 458.091 143.84 457.504C144.597 456.907 145.584 456.608 146.8 456.608C148.037 456.608 149.035 456.907 149.792 457.504C150.549 458.091 150.955 458.912 151.008 459.968H148.048C148.027 459.605 147.893 459.323 147.648 459.12C147.403 458.907 147.088 458.8 146.704 458.8C146.373 458.8 146.107 458.891 145.904 459.072C145.701 459.243 145.6 459.493 145.6 459.824C145.6 460.187 145.771 460.469 146.112 460.672C146.453 460.875 146.987 461.093 147.712 461.328C148.437 461.573 149.024 461.808 149.472 462.032C149.931 462.256 150.325 462.581 150.656 463.008C150.987 463.435 151.152 463.984 151.152 464.656C151.152 465.296 150.987 465.877 150.656 466.4C150.336 466.923 149.867 467.339 149.248 467.648C148.629 467.957 147.899 468.112 147.056 468.112Z" fill="white"/>
<path d="M240.688 551.36C241.664 551.568 242.448 552.056 243.04 552.824C243.632 553.576 243.928 554.44 243.928 555.416C243.928 556.824 243.432 557.944 242.44 558.776C241.464 559.592 240.096 560 238.336 560H230.488V543.152H238.072C239.784 543.152 241.12 543.544 242.08 544.328C243.056 545.112 243.544 546.176 243.544 547.52C243.544 548.512 243.28 549.336 242.752 549.992C242.24 550.648 241.552 551.104 240.688 551.36ZM234.592 549.968H237.28C237.952 549.968 238.464 549.824 238.816 549.536C239.184 549.232 239.368 548.792 239.368 548.216C239.368 547.64 239.184 547.2 238.816 546.896C238.464 546.592 237.952 546.44 237.28 546.44H234.592V549.968ZM237.616 556.688C238.304 556.688 238.832 556.536 239.2 556.232C239.584 555.912 239.776 555.456 239.776 554.864C239.776 554.272 239.576 553.808 239.176 553.472C238.792 553.136 238.256 552.968 237.568 552.968H234.592V556.688H237.616Z" fill="white"/>
<g filter="url(#filter17_d_238_123)">
<circle cx="282.5" cy="382.5" r="10.5" fill="#5057FF"/>
</g>
<path d="M284.792 382.24C285.443 382.379 285.965 382.704 286.36 383.216C286.755 383.717 286.952 384.293 286.952 384.944C286.952 385.883 286.621 386.629 285.96 387.184C285.309 387.728 284.397 388 283.224 388H277.992V376.768H283.048C284.189 376.768 285.08 377.029 285.72 377.552C286.371 378.075 286.696 378.784 286.696 379.68C286.696 380.341 286.52 380.891 286.168 381.328C285.827 381.765 285.368 382.069 284.792 382.24ZM280.728 381.312H282.52C282.968 381.312 283.309 381.216 283.544 381.024C283.789 380.821 283.912 380.528 283.912 380.144C283.912 379.76 283.789 379.467 283.544 379.264C283.309 379.061 282.968 378.96 282.52 378.96H280.728V381.312ZM282.744 385.792C283.203 385.792 283.555 385.691 283.8 385.488C284.056 385.275 284.184 384.971 284.184 384.576C284.184 384.181 284.051 383.872 283.784 383.648C283.528 383.424 283.171 383.312 282.712 383.312H280.728V385.792H282.744Z" fill="white"/>
<defs>
<filter id="filter0_d_238_123" x="0" y="0" width="345" height="732" filterUnits="userSpaceOnUse" color-interpolation-filters="sRGB">
<feFlood flood-opacity="0" result="BackgroundImageFix"/>
<feColorMatrix in="SourceAlpha" type="matrix" values="0 0 0 0 0 0 0 0 0 0 0 0 0 0 0 0 0 0 127 0" result="hardAlpha"/>
<feOffset dy="4"/>
<feGaussianBlur stdDeviation="2"/>
<feComposite in2="hardAlpha" operator="out"/>
<feColorMatrix type="matrix" values="0 0 0 0 0 0 0 0 0 0 0 0 0 0 0 0 0 0 0.25 0"/>
<feBlend mode="normal" in2="BackgroundImageFix" result="effect1_dropShadow_238_123"/>
<feBlend mode="normal" in="SourceGraphic" in2="effect1_dropShadow_238_123" result="shape"/>
</filter>
<filter id="filter1_d_238_123" x="176" y="100" width="130" height="67" filterUnits="userSpaceOnUse" color-interpolation-filters="sRGB">
<feFlood flood-opacity="0" result="BackgroundImageFix"/>
<feColorMatrix in="SourceAlpha" type="matrix" values="0 0 0 0 0 0 0 0 0 0 0 0 0 0 0 0 0 0 127 0" result="hardAlpha"/>
<feOffset dy="4"/>
<feGaussianBlur stdDeviation="2"/>
<feComposite in2="hardAlpha" operator="out"/>
<feColorMatrix type="matrix" values="0 0 0 0 0 0 0 0 0 0 0 0 0 0 0 0 0 0 0.25 0"/>
<feBlend mode="normal" in2="BackgroundImageFix" result="effect1_dropShadow_238_123"/>
<feBlend mode="normal" in="SourceGraphic" in2="effect1_dropShadow_238_123" result="shape"/>
</filter>
<filter id="filter2_d_238_123" x="39" y="100" width="130" height="67" filterUnits="userSpaceOnUse" color-interpolation-filters="sRGB">
<feFlood flood-opacity="0" result="BackgroundImageFix"/>
<feColorMatrix in="SourceAlpha" type="matrix" values="0 0 0 0 0 0 0 0 0 0 0 0 0 0 0 0 0 0 127 0" result="hardAlpha"/>
<feOffset dy="4"/>
<feGaussianBlur stdDeviation="2"/>
<feComposite in2="hardAlpha" operator="out"/>
<feColorMatrix type="matrix" values="0 0 0 0 0 0 0 0 0 0 0 0 0 0 0 0 0 0 0.25 0"/>
<feBlend mode="normal" in2="BackgroundImageFix" result="effect1_dropShadow_238_123"/>
<feBlend mode="normal" in="SourceGraphic" in2="effect1_dropShadow_238_123" result="shape"/>
</filter>
<filter id="filter3_d_238_123" x="176" y="420" width="130" height="67" filterUnits="userSpaceOnUse" color-interpolation-filters="sRGB">
<feFlood flood-opacity="0" result="BackgroundImageFix"/>
<feColorMatrix in="SourceAlpha" type="matrix" values="0 0 0 0 0 0 0 0 0 0 0 0 0 0 0 0 0 0 127 0" result="hardAlpha"/>
<feOffset dy="4"/>
<feGaussianBlur stdDeviation="2"/>
<feComposite in2="hardAlpha" operator="out"/>
<feColorMatrix type="matrix" values="0 0 0 0 0 0 0 0 0 0 0 0 0 0 0 0 0 0 0.25 0"/>
<feBlend mode="normal" in2="BackgroundImageFix" result="effect1_dropShadow_238_123"/>
<feBlend mode="normal" in="SourceGraphic" in2="effect1_dropShadow_238_123" result="shape"/>
</filter>
<filter id="filter4_d_238_123" x="39" y="420" width="130" height="67" filterUnits="userSpaceOnUse" color-interpolation-filters="sRGB">
<feFlood flood-opacity="0" result="BackgroundImageFix"/>
<feColorMatrix in="SourceAlpha" type="matrix" values="0 0 0 0 0 0 0 0 0 0 0 0 0 0 0 0 0 0 127 0" result="hardAlpha"/>
<feOffset dy="4"/>
<feGaussianBlur stdDeviation="2"/>
<feComposite in2="hardAlpha" operator="out"/>
<feColorMatrix type="matrix" values="0 0 0 0 0 0 0 0 0 0 0 0 0 0 0 0 0 0 0.25 0"/>
<feBlend mode="normal" in2="BackgroundImageFix" result="effect1_dropShadow_238_123"/>
<feBlend mode="normal" in="SourceGraphic" in2="effect1_dropShadow_238_123" result="shape"/>
</filter>
<filter id="filter5_d_238_123" x="176" y="340" width="130" height="67" filterUnits="userSpaceOnUse" color-interpolation-filters="sRGB">
<feFlood flood-opacity="0" result="BackgroundImageFix"/>
<feColorMatrix in="SourceAlpha" type="matrix" values="0 0 0 0 0 0 0 0 0 0 0 0 0 0 0 0 0 0 127 0" result="hardAlpha"/>
<feOffset dy="4"/>
<feGaussianBlur stdDeviation="2"/>
<feComposite in2="hardAlpha" operator="out"/>
<feColorMatrix type="matrix" values="0 0 0 0 0 0 0 0 0 0 0 0 0 0 0 0 0 0 0.25 0"/>
<feBlend mode="normal" in2="BackgroundImageFix" result="effect1_dropShadow_238_123"/>
<feBlend mode="normal" in="SourceGraphic" in2="effect1_dropShadow_238_123" result="shape"/>
</filter>
<filter id="filter6_d_238_123" x="39" y="340" width="130" height="67" filterUnits="userSpaceOnUse" color-interpolation-filters="sRGB">
<feFlood flood-opacity="0" result="BackgroundImageFix"/>
<feColorMatrix in="SourceAlpha" type="matrix" values="0 0 0 0 0 0 0 0 0 0 0 0 0 0 0 0 0 0 127 0" result="hardAlpha"/>
<feOffset dy="4"/>
<feGaussianBlur stdDeviation="2"/>
<feComposite in2="hardAlpha" operator="out"/>
<feColorMatrix type="matrix" values="0 0 0 0 0 0 0 0 0 0 0 0 0 0 0 0 0 0 0.25 0"/>
<feBlend mode="normal" in2="BackgroundImageFix" result="effect1_dropShadow_238_123"/>
<feBlend mode="normal" in="SourceGraphic" in2="effect1_dropShadow_238_123" result="shape"/>
</filter>
<filter id="filter7_d_238_123" x="176" y="260" width="130" height="67" filterUnits="userSpaceOnUse" color-interpolation-filters="sRGB">
<feFlood flood-opacity="0" result="BackgroundImageFix"/>
<feColorMatrix in="SourceAlpha" type="matrix" values="0 0 0 0 0 0 0 0 0 0 0 0 0 0 0 0 0 0 127 0" result="hardAlpha"/>
<feOffset dy="4"/>
<feGaussianBlur stdDeviation="2"/>
<feComposite in2="hardAlpha" operator="out"/>
<feColorMatrix type="matrix" values="0 0 0 0 0 0 0 0 0 0 0 0 0 0 0 0 0 0 0.25 0"/>
<feBlend mode="normal" in2="BackgroundImageFix" result="effect1_dropShadow_238_123"/>
<feBlend mode="normal" in="SourceGraphic" in2="effect1_dropShadow_238_123" result="shape"/>
</filter>
<filter id="filter8_d_238_123" x="39" y="260" width="130" height="67" filterUnits="userSpaceOnUse" color-interpolation-filters="sRGB">
<feFlood flood-opacity="0" result="BackgroundImageFix"/>
<feColorMatrix in="SourceAlpha" type="matrix" values="0 0 0 0 0 0 0 0 0 0 0 0 0 0 0 0 0 0 127 0" result="hardAlpha"/>
<feOffset dy="4"/>
<feGaussianBlur stdDeviation="2"/>
<feComposite in2="hardAlpha" operator="out"/>
<feColorMatrix type="matrix" values="0 0 0 0 0 0 0 0 0 0 0 0 0 0 0 0 0 0 0.25 0"/>
<feBlend mode="normal" in2="BackgroundImageFix" result="effect1_dropShadow_238_123"/>
<feBlend mode="normal" in="SourceGraphic" in2="effect1_dropShadow_238_123" result="shape"/>
</filter>
<filter id="filter9_d_238_123" x="176" y="180" width="130" height="67" filterUnits="userSpaceOnUse" color-interpolation-filters="sRGB">
<feFlood flood-opacity="0" result="BackgroundImageFix"/>
<feColorMatrix in="SourceAlpha" type="matrix" values="0 0 0 0 0 0 0 0 0 0 0 0 0 0 0 0 0 0 127 0" result="hardAlpha"/>
<feOffset dy="4"/>
<feGaussianBlur stdDeviation="2"/>
<feComposite in2="hardAlpha" operator="out"/>
<feColorMatrix type="matrix" values="0 0 0 0 0 0 0 0 0 0 0 0 0 0 0 0 0 0 0.25 0"/>
<feBlend mode="normal" in2="BackgroundImageFix" result="effect1_dropShadow_238_123"/>
<feBlend mode="normal" in="SourceGraphic" in2="effect1_dropShadow_238_123" result="shape"/>
</filter>
<filter id="filter10_d_238_123" x="39" y="180" width="130" height="67" filterUnits="userSpaceOnUse" color-interpolation-filters="sRGB">
<feFlood flood-opacity="0" result="BackgroundImageFix"/>
<feColorMatrix in="SourceAlpha" type="matrix" values="0 0 0 0 0 0 0 0 0 0 0 0 0 0 0 0 0 0 127 0" result="hardAlpha"/>
<feOffset dy="4"/>
<feGaussianBlur stdDeviation="2"/>
<feComposite in2="hardAlpha" operator="out"/>
<feColorMatrix type="matrix" values="0 0 0 0 0 0 0 0 0 0 0 0 0 0 0 0 0 0 0.25 0"/>
<feBlend mode="normal" in2="BackgroundImageFix" result="effect1_dropShadow_238_123"/>
<feBlend mode="normal" in="SourceGraphic" in2="effect1_dropShadow_238_123" result="shape"/>
</filter>
<filter id="filter11_d_238_123" x="39.2319" y="18.3601" width="267.695" height="44.1799" filterUnits="userSpaceOnUse" color-interpolation-filters="sRGB">
<feFlood flood-opacity="0" result="BackgroundImageFix"/>
<feColorMatrix in="SourceAlpha" type="matrix" values="0 0 0 0 0 0 0 0 0 0 0 0 0 0 0 0 0 0 127 0" result="hardAlpha"/>
<feOffset dy="4"/>
<feGaussianBlur stdDeviation="2"/>
<feComposite in2="hardAlpha" operator="out"/>
<feColorMatrix type="matrix" values="0 0 0 0 0 0 0 0 0 0 0 0 0 0 0 0 0 0 0.25 0"/>
<feBlend mode="normal" in2="BackgroundImageFix" result="effect1_dropShadow_238_123"/>
<feBlend mode="normal" in="SourceGraphic" in2="effect1_dropShadow_238_123" result="shape"/>
</filter>
<filter id="filter12_d_238_123" x="268" y="452" width="29" height="29" filterUnits="userSpaceOnUse" color-interpolation-filters="sRGB">
<feFlood flood-opacity="0" result="BackgroundImageFix"/>
<feColorMatrix in="SourceAlpha" type="matrix" values="0 0 0 0 0 0 0 0 0 0 0 0 0 0 0 0 0 0 127 0" result="hardAlpha"/>
<feOffset dy="4"/>
<feGaussianBlur stdDeviation="2"/>
<feComposite in2="hardAlpha" operator="out"/>
<feColorMatrix type="matrix" values="0 0 0 0 0 0 0 0 0 0 0 0 0 0 0 0 0 0 0.25 0"/>
<feBlend mode="normal" in2="BackgroundImageFix" result="effect1_dropShadow_238_123"/>
<feBlend mode="normal" in="SourceGraphic" in2="effect1_dropShadow_238_123" result="shape"/>
</filter>
<filter id="filter13_d_238_123" x="132" y="292" width="29" height="29" filterUnits="userSpaceOnUse" color-interpolation-filters="sRGB">
<feFlood flood-opacity="0" result="BackgroundImageFix"/>
<feColorMatrix in="SourceAlpha" type="matrix" values="0 0 0 0 0 0 0 0 0 0 0 0 0 0 0 0 0 0 127 0" result="hardAlpha"/>
<feOffset dy="4"/>
<feGaussianBlur stdDeviation="2"/>
<feComposite in2="hardAlpha" operator="out"/>
<feColorMatrix type="matrix" values="0 0 0 0 0 0 0 0 0 0 0 0 0 0 0 0 0 0 0.25 0"/>
<feBlend mode="normal" in2="BackgroundImageFix" result="effect1_dropShadow_238_123"/>
<feBlend mode="normal" in="SourceGraphic" in2="effect1_dropShadow_238_123" result="shape"/>
</filter>
<filter id="filter14_d_238_123" x="132" y="372" width="29" height="29" filterUnits="userSpaceOnUse" color-interpolation-filters="sRGB">
<feFlood flood-opacity="0" result="BackgroundImageFix"/>
<feColorMatrix in="SourceAlpha" type="matrix" values="0 0 0 0 0 0 0 0 0 0 0 0 0 0 0 0 0 0 127 0" result="hardAlpha"/>
<feOffset dy="4"/>
<feGaussianBlur stdDeviation="2"/>
<feComposite in2="hardAlpha" operator="out"/>
<feColorMatrix type="matrix" values="0 0 0 0 0 0 0 0 0 0 0 0 0 0 0 0 0 0 0.25 0"/>
<feBlend mode="normal" in2="BackgroundImageFix" result="effect1_dropShadow_238_123"/>
<feBlend mode="normal" in="SourceGraphic" in2="effect1_dropShadow_238_123" result="shape"/>
</filter>
<filter id="filter15_d_238_123" x="268" y="294" width="29" height="29" filterUnits="userSpaceOnUse" color-interpolation-filters="sRGB">
<feFlood flood-opacity="0" result="BackgroundImageFix"/>
<feColorMatrix in="SourceAlpha" type="matrix" values="0 0 0 0 0 0 0 0 0 0 0 0 0 0 0 0 0 0 127 0" result="hardAlpha"/>
<feOffset dy="4"/>
<feGaussianBlur stdDeviation="2"/>
<feComposite in2="hardAlpha" operator="out"/>
<feColorMatrix type="matrix" values="0 0 0 0 0 0 0 0 0 0 0 0 0 0 0 0 0 0 0.25 0"/>
<feBlend mode="normal" in2="BackgroundImageFix" result="effect1_dropShadow_238_123"/>
<feBlend mode="normal" in="SourceGraphic" in2="effect1_dropShadow_238_123" result="shape"/>
</filter>
<filter id="filter16_d_238_123" x="132" y="452" width="29" height="29" filterUnits="userSpaceOnUse" color-interpolation-filters="sRGB">
<feFlood flood-opacity="0" result="BackgroundImageFix"/>
<feColorMatrix in="SourceAlpha" type="matrix" values="0 0 0 0 0 0 0 0 0 0 0 0 0 0 0 0 0 0 127 0" result="hardAlpha"/>
<feOffset dy="4"/>
<feGaussianBlur stdDeviation="2"/>
<feComposite in2="hardAlpha" operator="out"/>
<feColorMatrix type="matrix" values="0 0 0 0 0 0 0 0 0 0 0 0 0 0 0 0 0 0 0.25 0"/>
<feBlend mode="normal" in2="BackgroundImageFix" result="effect1_dropShadow_238_123"/>
<feBlend mode="normal" in="SourceGraphic" in2="effect1_dropShadow_238_123" result="shape"/>
</filter>
<filter id="filter17_d_238_123" x="268" y="372" width="29" height="29" filterUnits="userSpaceOnUse" color-interpolation-filters="sRGB">
<feFlood flood-opacity="0" result="BackgroundImageFix"/>
<feColorMatrix in="SourceAlpha" type="matrix" values="0 0 0 0 0 0 0 0 0 0 0 0 0 0 0 0 0 0 127 0" result="hardAlpha"/>
<feOffset dy="4"/>
<feGaussianBlur stdDeviation="2"/>
<feComposite in2="hardAlpha" operator="out"/>
<feColorMatrix type="matrix" values="0 0 0 0 0 0 0 0 0 0 0 0 0 0 0 0 0 0 0.25 0"/>
<feBlend mode="normal" in2="BackgroundImageFix" result="effect1_dropShadow_238_123"/>
<feBlend mode="normal" in="SourceGraphic" in2="effect1_dropShadow_238_123" result="shape"/>
</filter>
</defs>
</svg>