<svg xmlns="http://www.w3.org/2000/svg" width="633" height="110" viewBox="0 0 633 110" fill="none">
<g filter="url(#filter0_d_237_76)">
<path d="M42.216 10.088V17.192H13.128V39.752H36.744V46.856H13.128V77H4.392V10.088H42.216ZM57.279 15.848C55.615 15.848 54.207 15.272 53.055 14.12C51.903 12.968 51.327 11.56 51.327 9.89599C51.327 8.232 51.903 6.824 53.055 5.672C54.207 4.52 55.615 3.944 57.279 3.944C58.879 3.944 60.223 4.52 61.311 5.672C62.463 6.824 63.039 8.232 63.039 9.89599C63.039 11.56 62.463 12.968 61.311 14.12C60.223 15.272 58.879 15.848 57.279 15.848ZM61.503 24.392V77H52.767V24.392H61.503ZM102.024 23.432C108.424 23.432 113.608 25.384 117.576 29.288C121.544 33.128 123.528 38.696 123.528 45.992V77H114.888V47.24C114.888 41.992 113.576 37.992 110.952 35.24C108.328 32.424 104.744 31.016 100.2 31.016C95.592 31.016 91.912 32.456 89.16 35.336C86.472 38.216 85.128 42.408 85.128 47.912V77H76.392V24.392H85.128V31.88C86.856 29.192 89.192 27.112 92.136 25.64C95.144 24.168 98.44 23.432 102.024 23.432ZM134.534 50.504C134.534 45.128 135.622 40.424 137.798 36.392C139.974 32.296 142.95 29.128 146.726 26.888C150.566 24.648 154.854 23.528 159.59 23.528C163.686 23.528 167.494 24.488 171.014 26.408C174.534 28.264 177.222 30.728 179.078 33.8V5.96H187.91V77H179.078V67.112C177.35 70.248 174.79 72.84 171.398 74.888C168.006 76.872 164.038 77.864 159.494 77.864C154.822 77.864 150.566 76.712 146.726 74.408C142.95 72.104 139.974 68.872 137.798 64.712C135.622 60.552 134.534 55.816 134.534 50.504ZM179.078 50.6C179.078 46.632 178.278 43.176 176.678 40.232C175.078 37.288 172.902 35.048 170.15 33.512C167.462 31.912 164.486 31.112 161.222 31.112C157.958 31.112 154.982 31.88 152.294 33.416C149.606 34.952 147.462 37.192 145.862 40.136C144.262 43.08 143.462 46.536 143.462 50.504C143.462 54.536 144.262 58.056 145.862 61.064C147.462 64.008 149.606 66.28 152.294 67.88C154.982 69.416 157.958 70.184 161.222 70.184C164.486 70.184 167.462 69.416 170.15 67.88C172.902 66.28 175.078 64.008 176.678 61.064C178.278 58.056 179.078 54.568 179.078 50.6ZM296.139 10.568V77H287.403V27.464L265.323 77H259.179L237.003 27.368V77H228.267V10.568H237.675L262.251 65.48L286.827 10.568H296.139ZM356.267 24.392L324.587 101.768H315.562L325.931 76.424L304.715 24.392H314.411L330.923 67.016L347.243 24.392H356.267Z" fill="black"/>
<path d="M392.05 39.3H385.75V26.9H392.05V22.7C392.05 15.3 393.817 9.7 397.35 5.9C400.95 2.1 405.95 0.199999 412.35 0.199999C417.483 0.199999 422.25 1.5 426.65 4.1L425.95 17.6C422.083 16.0667 418.85 15.3 416.25 15.3C414.25 15.3 412.717 15.8 411.65 16.8C410.583 17.7333 410.05 19.1 410.05 20.9C410.05 22.6333 410.617 24.6333 411.75 26.9H425.75V39.3H413.15V77H392.05V39.3ZM431.707 27.6H451.807V37.8C454.074 33.8667 456.64 30.9667 459.507 29.1C462.44 27.1667 465.907 26.2 469.907 26.2C473.84 26.2 477.24 27.2 480.107 29.2C483.04 31.1333 485.24 33.7667 486.707 37.1C490.974 29.8333 497.174 26.2 505.307 26.2C509.174 26.2 512.54 27.2333 515.407 29.3C518.34 31.3667 520.607 34.3667 522.207 38.3C523.807 42.1667 524.607 46.7333 524.607 52V77H503.507V52C503.507 48.6 502.907 46.0333 501.707 44.3C500.574 42.5667 498.974 41.7 496.907 41.7C494.64 41.7 492.674 42.6667 491.007 44.6C489.407 46.5333 488.607 48.8667 488.607 51.6V77H467.707V52C467.707 48.6 467.107 46.0333 465.907 44.3C464.774 42.5667 463.14 41.7 461.007 41.7C458.74 41.7 456.807 42.6667 455.207 44.6C453.607 46.5333 452.807 48.8667 452.807 51.6V77H431.707V27.6ZM551.944 77.8C546.277 77.8 541.877 76.0333 538.744 72.5C535.677 68.9 534.144 64 534.144 57.8V11.1L555.244 7.99999V56.3C555.244 58.1667 555.677 59.5333 556.544 60.4C557.477 61.2 559.077 61.6 561.344 61.6C563.01 61.6 564.644 61.2 566.244 60.4L566.944 74.4C562.477 76.6667 557.477 77.8 551.944 77.8ZM598.737 99.9C595.07 99.9 591.57 99.5333 588.237 98.8L589.837 84C592.437 84.4 594.837 84.6 597.037 84.6C600.97 84.6 603.97 83.4 606.037 81C608.103 78.6667 609.17 74.2333 609.237 67.7C605.77 74.3667 600.203 77.7 592.537 77.7C586.07 77.7 581.003 75.4333 577.337 70.9C573.737 66.3 571.937 59.9667 571.937 51.9V26.9H592.937V55C592.937 57.2667 593.57 59.1667 594.837 60.7C596.103 62.1667 597.837 62.9 600.037 62.9C602.303 62.9 604.137 61.9333 605.537 60C607.003 58.0667 607.737 55.5333 607.737 52.4V26.9H628.837V64.3C628.837 75.9 626.237 84.7333 621.037 90.8C615.837 96.8667 608.403 99.9 598.737 99.9Z" fill="#83F3DF"/>
</g>
<defs>
<filter id="filter0_d_237_76" x="0.39209" y="0.199951" width="632.445" height="109.568" filterUnits="userSpaceOnUse" color-interpolation-filters="sRGB">
<feFlood flood-opacity="0" result="BackgroundImageFix"/>
<feColorMatrix in="SourceAlpha" type="matrix" values="0 0 0 0 0 0 0 0 0 0 0 0 0 0 0 0 0 0 127 0" result="hardAlpha"/>
<feOffset dy="4"/>
<feGaussianBlur stdDeviation="2"/>
<feComposite in2="hardAlpha" operator="out"/>
<feColorMatrix type="matrix" values="0 0 0 0 0 0 0 0 0 0 0 0 0 0 0 0 0 0 0.25 0"/>
<feBlend mode="normal" in2="BackgroundImageFix" result="effect1_dropShadow_237_76"/>
<feBlend mode="normal" in="SourceGraphic" in2="effect1_dropShadow_237_76" result="shape"/>
</filter>
</defs>
</svg>