<svg xmlns="http://www.w3.org/2000/svg" width="112" height="45" viewBox="0 0 112 45" fill="none">
<g filter="url(#filter0_d_313_719)">
<path d="M4.70502 27.4984C4.28695 28.2136 4.52781 29.1323 5.24301 29.5503L16.8978 36.3633C17.613 36.7814 18.5317 36.5405 18.9498 35.8253C19.3678 35.1101 19.127 34.1914 18.4118 33.7733L8.05197 27.7174L14.1079 17.3576C14.526 16.6424 14.2851 15.7237 13.5699 15.3056C12.8547 14.8875 11.936 15.1284 11.518 15.8436L4.70502 27.4984ZM6.38041 29.7063L56.9186 16.4563L56.1578 13.5543L5.61959 26.8044L6.38041 29.7063ZM56.9186 16.4563L107.457 3.2062L106.696 0.304277L56.1578 13.5543L56.9186 16.4563Z" fill="#CBF4AB"/>
</g>
<defs>
<filter id="filter0_d_313_719" x="0.5" y="0.304321" width="110.957" height="44.2643" filterUnits="userSpaceOnUse" color-interpolation-filters="sRGB">
<feFlood flood-opacity="0" result="BackgroundImageFix"/>
<feColorMatrix in="SourceAlpha" type="matrix" values="0 0 0 0 0 0 0 0 0 0 0 0 0 0 0 0 0 0 127 0" result="hardAlpha"/>
<feOffset dy="4"/>
<feGaussianBlur stdDeviation="2"/>
<feComposite in2="hardAlpha" operator="out"/>
<feColorMatrix type="matrix" values="0 0 0 0 0 0 0 0 0 0 0 0 0 0 0 0 0 0 0.25 0"/>
<feBlend mode="normal" in2="BackgroundImageFix" result="effect1_dropShadow_313_719"/>
<feBlend mode="normal" in="SourceGraphic" in2="effect1_dropShadow_313_719" result="shape"/>
</filter>
</defs>
</svg>