<svg xmlns="http://www.w3.org/2000/svg" width="471" height="455" viewBox="0 0 471 455" fill="none">
<path d="M18.84 0H0V18.2H18.84V0Z" fill="black"/>
<path d="M37.68 0H18.84V18.2H37.68V0Z" fill="black"/>
<path d="M56.52 0H37.68V18.2H56.52V0Z" fill="black"/>
<path d="M75.36 0H56.52V18.2H75.36V0Z" fill="black"/>
<path d="M94.2 0H75.36V18.2H94.2V0Z" fill="black"/>
<path d="M113.04 0H94.2V18.2H113.04V0Z" fill="black"/>
<path d="M131.88 0H113.04V18.2H131.88V0Z" fill="black"/>
<path d="M169.56 0H150.72V18.2H169.56V0Z" fill="black"/>
<path d="M207.24 0H188.4V18.2H207.24V0Z" fill="black"/>
<path d="M301.44 0H282.6V18.2H301.44V0Z" fill="black"/>
<path d="M357.96 0H339.12V18.2H357.96V0Z" fill="black"/>
<path d="M376.8 0H357.96V18.2H376.8V0Z" fill="black"/>
<path d="M395.64 0H376.8V18.2H395.64V0Z" fill="black"/>
<path d="M414.48 0H395.64V18.2H414.48V0Z" fill="black"/>
<path d="M433.32 0H414.48V18.2H433.32V0Z" fill="black"/>
<path d="M452.16 0H433.32V18.2H452.16V0Z" fill="black"/>
<path d="M471 0H452.16V18.2H471V0Z" fill="black"/>
<path d="M18.84 18.2H0V36.4H18.84V18.2Z" fill="black"/>
<path d="M131.88 18.2H113.04L113.04 36.4H131.88V18.2Z" fill="black"/>
<path d="M188.4 18.2H169.56V36.4H188.4V18.2Z" fill="black"/>
<path d="M207.24 18.2H188.4V36.4H207.24V18.2Z" fill="black"/>
<path d="M226.08 18.2H207.24V36.4H226.08V18.2Z" fill="black"/>
<path d="M244.92 18.2H226.08V36.4H244.92V18.2Z" fill="black"/>
<path d="M282.6 18.2H263.76V36.4H282.6L282.6 18.2Z" fill="black"/>
<path d="M357.96 18.2H339.12V36.4H357.96V18.2Z" fill="black"/>
<path d="M471 18.2H452.16V36.4H471V18.2Z" fill="black"/>
<path d="M18.84 36.4H0V54.6H18.84V36.4Z" fill="black"/>
<path d="M56.52 36.4H37.68V54.6H56.52V36.4Z" fill="black"/>
<path d="M75.36 36.4H56.52V54.6H75.36V36.4Z" fill="black"/>
<path d="M94.2 36.4H75.36V54.6H94.2V36.4Z" fill="black"/>
<path d="M131.88 36.4H113.04V54.6H131.88V36.4Z" fill="black"/>
<path d="M169.56 36.4H150.72V54.6H169.56V36.4Z" fill="black"/>
<path d="M188.4 36.4H169.56V54.6H188.4V36.4Z" fill="black"/>
<path d="M244.92 36.4H226.08V54.6H244.92V36.4Z" fill="black"/>
<path d="M282.6 36.4H263.76V54.6H282.6V36.4Z" fill="black"/>
<path d="M320.28 36.4H301.44V54.6H320.28V36.4Z" fill="black"/>
<path d="M357.96 36.4H339.12V54.6H357.96V36.4Z" fill="black"/>
<path d="M395.64 36.4H376.8V54.6H395.64V36.4Z" fill="black"/>
<path d="M414.48 36.4H395.64V54.6H414.48V36.4Z" fill="black"/>
<path d="M433.32 36.4H414.48V54.6H433.32V36.4Z" fill="black"/>
<path d="M471 36.4H452.16V54.6H471V36.4Z" fill="black"/>
<path d="M18.84 54.6H0V72.8H18.84V54.6Z" fill="black"/>
<path d="M56.52 54.6H37.68V72.8H56.52V54.6Z" fill="black"/>
<path d="M75.36 54.6H56.52V72.8H75.36V54.6Z" fill="black"/>
<path d="M94.2 54.6H75.36V72.8H94.2V54.6Z" fill="black"/>
<path d="M131.88 54.6H113.04V72.8H131.88V54.6Z" fill="black"/>
<path d="M169.56 54.6H150.72V72.8H169.56V54.6Z" fill="black"/>
<path d="M188.4 54.6H169.56V72.8H188.4V54.6Z" fill="black"/>
<path d="M226.08 54.6H207.24V72.8H226.08V54.6Z" fill="black"/>
<path d="M244.92 54.6H226.08V72.8H244.92V54.6Z" fill="black"/>
<path d="M320.28 54.6H301.44V72.8H320.28V54.6Z" fill="black"/>
<path d="M357.96 54.6H339.12V72.8H357.96V54.6Z" fill="black"/>
<path d="M395.64 54.6H376.8V72.8H395.64V54.6Z" fill="black"/>
<path d="M414.48 54.6H395.64V72.8H414.48V54.6Z" fill="black"/>
<path d="M433.32 54.6H414.48V72.8H433.32V54.6Z" fill="black"/>
<path d="M471 54.6H452.16V72.8H471V54.6Z" fill="black"/>
<path d="M18.84 72.8H0V91H18.84V72.8Z" fill="black"/>
<path d="M56.52 72.8H37.68V91H56.52V72.8Z" fill="black"/>
<path d="M75.36 72.8H56.52V91H75.36V72.8Z" fill="black"/>
<path d="M94.2 72.8H75.36V91H94.2V72.8Z" fill="black"/>
<path d="M131.88 72.8H113.04V91H131.88V72.8Z" fill="black"/>
<path d="M188.4 72.8H169.56V91H188.4V72.8Z" fill="black"/>
<path d="M207.24 72.8H188.4V91H207.24V72.8Z" fill="black"/>
<path d="M226.08 72.8H207.24V91H226.08V72.8Z" fill="black"/>
<path d="M263.76 72.8H244.92V91H263.76V72.8Z" fill="black"/>
<path d="M357.96 72.8H339.12V91H357.96V72.8Z" fill="black"/>
<path d="M395.64 72.8H376.8V91H395.64V72.8Z" fill="black"/>
<path d="M414.48 72.8H395.64V91H414.48V72.8Z" fill="black"/>
<path d="M433.32 72.8H414.48V91H433.32V72.8Z" fill="black"/>
<path d="M471 72.8H452.16V91H471V72.8Z" fill="black"/>
<path d="M18.84 91H0V109.2H18.84V91Z" fill="black"/>
<path d="M131.88 91H113.04V109.2H131.88V91Z" fill="black"/>
<path d="M169.56 91H150.72V109.2H169.56V91Z" fill="black"/>
<path d="M188.4 91H169.56V109.2H188.4V91Z" fill="black"/>
<path d="M244.92 91H226.08V109.2H244.92V91Z" fill="black"/>
<path d="M357.96 91H339.12V109.2H357.96V91Z" fill="black"/>
<path d="M471 91H452.16V109.2H471V91Z" fill="black"/>
<path d="M18.84 109.2H0V127.4H18.84V109.2Z" fill="black"/>
<path d="M37.68 109.2L18.84 109.2V127.4H37.68V109.2Z" fill="black"/>
<path d="M56.52 109.2H37.68V127.4H56.52V109.2Z" fill="black"/>
<path d="M75.36 109.2H56.52V127.4H75.36V109.2Z" fill="black"/>
<path d="M94.2 109.2H75.36V127.4H94.2V109.2Z" fill="black"/>
<path d="M113.04 109.2L94.2 109.2V127.4H113.04L113.04 109.2Z" fill="black"/>
<path d="M131.88 109.2H113.04L113.04 127.4H131.88V109.2Z" fill="black"/>
<path d="M169.56 109.2H150.72V127.4H169.56V109.2Z" fill="black"/>
<path d="M207.24 109.2L188.4 109.2V127.4H207.24V109.2Z" fill="black"/>
<path d="M244.92 109.2H226.08V127.4H244.92V109.2Z" fill="black"/>
<path d="M282.6 109.2H263.76V127.4H282.6V109.2Z" fill="black"/>
<path d="M320.28 109.2H301.44V127.4H320.28V109.2Z" fill="black"/>
<path d="M357.96 109.2H339.12V127.4H357.96V109.2Z" fill="black"/>
<path d="M376.8 109.2L357.96 109.2V127.4H376.8V109.2Z" fill="black"/>
<path d="M395.64 109.2H376.8V127.4H395.64V109.2Z" fill="black"/>
<path d="M414.48 109.2H395.64V127.4H414.48V109.2Z" fill="black"/>
<path d="M433.32 109.2H414.48V127.4H433.32V109.2Z" fill="black"/>
<path d="M452.16 109.2L433.32 109.2V127.4H452.16V109.2Z" fill="black"/>
<path d="M471 109.2H452.16V127.4H471V109.2Z" fill="black"/>
<path d="M169.56 127.4H150.72V145.6H169.56V127.4Z" fill="black"/>
<path d="M188.4 127.4H169.56V145.6H188.4V127.4Z" fill="black"/>
<path d="M244.92 127.4H226.08V145.6H244.92V127.4Z" fill="black"/>
<path d="M263.76 127.4H244.92V145.6H263.76V127.4Z" fill="black"/>
<path d="M282.6 127.4H263.76V145.6H282.6V127.4Z" fill="black"/>
<path d="M301.44 127.4H282.6V145.6H301.44V127.4Z" fill="black"/>
<path d="M18.84 145.6H0V163.8H18.84V145.6Z" fill="black"/>
<path d="M37.68 145.6H18.84V163.8H37.68V145.6Z" fill="black"/>
<path d="M75.36 145.6H56.52V163.8H75.36V145.6Z" fill="black"/>
<path d="M131.88 145.6H113.04V163.8H131.88V145.6Z" fill="black"/>
<path d="M150.72 145.6H131.88V163.8H150.72V145.6Z" fill="black"/>
<path d="M188.4 145.6H169.56V163.8H188.4V145.6Z" fill="black"/>
<path d="M207.24 145.6H188.4V163.8H207.24V145.6Z" fill="black"/>
<path d="M226.08 145.6H207.24V163.8H226.08V145.6Z" fill="black"/>
<path d="M339.12 145.6H320.28V163.8H339.12V145.6Z" fill="black"/>
<path d="M357.96 145.6H339.12V163.8H357.96V145.6Z" fill="black"/>
<path d="M376.8 145.6H357.96V163.8H376.8V145.6Z" fill="black"/>
<path d="M414.48 145.6H395.64V163.8H414.48V145.6Z" fill="black"/>
<path d="M433.32 145.6H414.48V163.8H433.32V145.6Z" fill="black"/>
<path d="M471 145.6H452.16V163.8H471V145.6Z" fill="black"/>
<path d="M18.84 163.8H0V182H18.84V163.8Z" fill="black"/>
<path d="M56.52 163.8H37.68V182H56.52V163.8Z" fill="black"/>
<path d="M75.36 163.8H56.52V182H75.36V163.8Z" fill="black"/>
<path d="M94.2 163.8H75.36V182H94.2V163.8Z" fill="black"/>
<path d="M169.56 163.8H150.72V182H169.56V163.8Z" fill="black"/>
<path d="M244.92 163.8H226.08V182H244.92V163.8Z" fill="black"/>
<path d="M320.28 163.8H301.44V182H320.28V163.8Z" fill="black"/>
<path d="M339.12 163.8H320.28V182H339.12V163.8Z" fill="black"/>
<path d="M471 163.8H452.16V182H471V163.8Z" fill="black"/>
<path d="M18.84 182H0V200.2H18.84V182Z" fill="black"/>
<path d="M37.68 182H18.84V200.2H37.68V182Z" fill="black"/>
<path d="M131.88 182H113.04V200.2H131.88V182Z" fill="black"/>
<path d="M169.56 182H150.72V200.2H169.56V182Z" fill="black"/>
<path d="M188.4 182H169.56V200.2H188.4V182Z" fill="black"/>
<path d="M226.08 182H207.24V200.2H226.08V182Z" fill="black"/>
<path d="M263.76 182H244.92V200.2H263.76V182Z" fill="black"/>
<path d="M282.6 182H263.76V200.2H282.6V182Z" fill="black"/>
<path d="M301.44 182H282.6V200.2H301.44V182Z" fill="black"/>
<path d="M339.12 182H320.28V200.2H339.12V182Z" fill="black"/>
<path d="M376.8 182H357.96V200.2H376.8V182Z" fill="black"/>
<path d="M395.64 182H376.8V200.2H395.64V182Z" fill="black"/>
<path d="M414.48 182H395.64V200.2H414.48V182Z" fill="black"/>
<path d="M433.32 182H414.48V200.2H433.32V182Z" fill="black"/>
<path d="M452.16 182H433.32V200.2H452.16V182Z" fill="black"/>
<path d="M56.52 200.2H37.68V218.4H56.52V200.2Z" fill="black"/>
<path d="M75.36 200.2H56.52V218.4H75.36V200.2Z" fill="black"/>
<path d="M207.24 200.2H188.4V218.4H207.24V200.2Z" fill="black"/>
<path d="M226.08 200.2H207.24V218.4H226.08V200.2Z" fill="black"/>
<path d="M263.76 200.2H244.92V218.4H263.76V200.2Z" fill="black"/>
<path d="M320.28 200.2H301.44V218.4H320.28V200.2Z" fill="black"/>
<path d="M357.96 200.2H339.12V218.4H357.96V200.2Z" fill="black"/>
<path d="M395.64 200.2H376.8V218.4H395.64V200.2Z" fill="black"/>
<path d="M433.32 200.2H414.48V218.4H433.32V200.2Z" fill="black"/>
<path d="M37.68 218.4H18.84V236.6H37.68V218.4Z" fill="black"/>
<path d="M113.04 218.4H94.2V236.6H113.04V218.4Z" fill="black"/>
<path d="M131.88 218.4H113.04V236.6H131.88V218.4Z" fill="black"/>
<path d="M150.72 218.4H131.88V236.6H150.72V218.4Z" fill="black"/>
<path d="M169.56 218.4H150.72V236.6H169.56V218.4Z" fill="black"/>
<path d="M188.4 218.4H169.56V236.6H188.4V218.4Z" fill="black"/>
<path d="M207.24 218.4H188.4V236.6H207.24V218.4Z" fill="black"/>
<path d="M282.6 218.4H263.76V236.6H282.6V218.4Z" fill="black"/>
<path d="M301.44 218.4H282.6V236.6H301.44V218.4Z" fill="black"/>
<path d="M339.12 218.4H320.28V236.6H339.12V218.4Z" fill="black"/>
<path d="M357.96 218.4H339.12V236.6H357.96V218.4Z" fill="black"/>
<path d="M376.8 218.4H357.96V236.6H376.8V218.4Z" fill="black"/>
<path d="M395.64 218.4H376.8V236.6H395.64V218.4Z" fill="black"/>
<path d="M414.48 218.4H395.64V236.6H414.48V218.4Z" fill="black"/>
<path d="M433.32 218.4H414.48V236.6H433.32V218.4Z" fill="black"/>
<path d="M471 218.4H452.16V236.6H471V218.4Z" fill="black"/>
<path d="M56.52 236.6H37.68V254.8H56.52V236.6Z" fill="black"/>
<path d="M75.36 236.6H56.52V254.8H75.36V236.6Z" fill="black"/>
<path d="M113.04 236.6H94.2V254.8H113.04V236.6Z" fill="black"/>
<path d="M226.08 236.6H207.24V254.8H226.08V236.6Z" fill="black"/>
<path d="M263.76 236.6H244.92V254.8H263.76V236.6Z" fill="black"/>
<path d="M301.44 236.6H282.6L282.6 254.8H301.44V236.6Z" fill="black"/>
<path d="M339.12 236.6H320.28V254.8H339.12V236.6Z" fill="black"/>
<path d="M395.64 236.6H376.8V254.8H395.64V236.6Z" fill="black"/>
<path d="M414.48 236.6H395.64V254.8H414.48V236.6Z" fill="black"/>
<path d="M433.32 236.6H414.48V254.8H433.32V236.6Z" fill="black"/>
<path d="M37.68 254.8H18.84V273H37.68V254.8Z" fill="black"/>
<path d="M56.52 254.8H37.68V273H56.52V254.8Z" fill="black"/>
<path d="M75.36 254.8H56.52V273H75.36V254.8Z" fill="black"/>
<path d="M131.88 254.8H113.04L113.04 273H131.88V254.8Z" fill="black"/>
<path d="M150.72 254.8H131.88V273H150.72V254.8Z" fill="black"/>
<path d="M169.56 254.8H150.72V273H169.56V254.8Z" fill="black"/>
<path d="M188.4 254.8H169.56V273H188.4V254.8Z" fill="black"/>
<path d="M207.24 254.8H188.4V273H207.24V254.8Z" fill="black"/>
<path d="M263.76 254.8H244.92V273H263.76V254.8Z" fill="black"/>
<path d="M282.6 254.8H263.76V273H282.6L282.6 254.8Z" fill="black"/>
<path d="M414.48 254.8H395.64V273H414.48V254.8Z" fill="black"/>
<path d="M471 254.8H452.16V273H471V254.8Z" fill="black"/>
<path d="M56.52 273H37.68V291.2H56.52V273Z" fill="black"/>
<path d="M94.2 273L75.36 273V291.2H94.2V273Z" fill="black"/>
<path d="M169.56 273H150.72V291.2H169.56V273Z" fill="black"/>
<path d="M263.76 273H244.92V291.2H263.76V273Z" fill="black"/>
<path d="M301.44 273L282.6 273L282.6 291.2H301.44V273Z" fill="black"/>
<path d="M320.28 273H301.44V291.2H320.28V273Z" fill="black"/>
<path d="M376.8 273H357.96V291.2H376.8V273Z" fill="black"/>
<path d="M414.48 273H395.64V291.2H414.48V273Z" fill="black"/>
<path d="M433.32 273L414.48 273V291.2H433.32V273Z" fill="black"/>
<path d="M18.84 291.2H0V309.4H18.84V291.2Z" fill="black"/>
<path d="M131.88 291.2H113.04V309.4H131.88V291.2Z" fill="black"/>
<path d="M188.4 291.2H169.56V309.4H188.4V291.2Z" fill="black"/>
<path d="M263.76 291.2H244.92V309.4H263.76V291.2Z" fill="black"/>
<path d="M301.44 291.2H282.6V309.4H301.44V291.2Z" fill="black"/>
<path d="M320.28 291.2H301.44V309.4H320.28V291.2Z" fill="black"/>
<path d="M339.12 291.2H320.28V309.4H339.12V291.2Z" fill="black"/>
<path d="M357.96 291.2H339.12V309.4H357.96V291.2Z" fill="black"/>
<path d="M376.8 291.2H357.96V309.4H376.8V291.2Z" fill="black"/>
<path d="M395.64 291.2H376.8V309.4H395.64V291.2Z" fill="black"/>
<path d="M414.48 291.2H395.64V309.4H414.48V291.2Z" fill="black"/>
<path d="M188.4 309.4H169.56V327.6H188.4V309.4Z" fill="black"/>
<path d="M226.08 309.4H207.24V327.6H226.08V309.4Z" fill="black"/>
<path d="M244.92 309.4H226.08V327.6H244.92V309.4Z" fill="black"/>
<path d="M282.6 309.4H263.76V327.6H282.6L282.6 309.4Z" fill="black"/>
<path d="M301.44 309.4H282.6L282.6 327.6H301.44V309.4Z" fill="black"/>
<path d="M320.28 309.4H301.44V327.6H320.28V309.4Z" fill="black"/>
<path d="M395.64 309.4H376.8V327.6H395.64V309.4Z" fill="black"/>
<path d="M433.32 309.4H414.48V327.6H433.32V309.4Z" fill="black"/>
<path d="M452.16 309.4H433.32V327.6H452.16V309.4Z" fill="black"/>
<path d="M18.84 327.6H0V345.8H18.84V327.6Z" fill="black"/>
<path d="M37.68 327.6H18.84V345.8H37.68V327.6Z" fill="black"/>
<path d="M56.52 327.6H37.68V345.8H56.52V327.6Z" fill="black"/>
<path d="M75.36 327.6H56.52V345.8H75.36V327.6Z" fill="black"/>
<path d="M94.2 327.6H75.36V345.8H94.2V327.6Z" fill="black"/>
<path d="M113.04 327.6H94.2V345.8H113.04V327.6Z" fill="black"/>
<path d="M131.88 327.6H113.04V345.8H131.88V327.6Z" fill="black"/>
<path d="M169.56 327.6H150.72V345.8H169.56V327.6Z" fill="black"/>
<path d="M226.08 327.6H207.24V345.8H226.08V327.6Z" fill="black"/>
<path d="M244.92 327.6H226.08V345.8H244.92V327.6Z" fill="black"/>
<path d="M263.76 327.6H244.92V345.8H263.76V327.6Z" fill="black"/>
<path d="M320.28 327.6H301.44V345.8H320.28V327.6Z" fill="black"/>
<path d="M357.96 327.6H339.12V345.8H357.96V327.6Z" fill="black"/>
<path d="M395.64 327.6H376.8V345.8H395.64V327.6Z" fill="black"/>
<path d="M414.48 327.6H395.64V345.8H414.48V327.6Z" fill="black"/>
<path d="M433.32 327.6H414.48V345.8H433.32V327.6Z" fill="black"/>
<path d="M452.16 327.6H433.32V345.8H452.16V327.6Z" fill="black"/>
<path d="M18.84 345.8H0V364H18.84V345.8Z" fill="black"/>
<path d="M131.88 345.8H113.04L113.04 364H131.88V345.8Z" fill="black"/>
<path d="M188.4 345.8H169.56V364H188.4V345.8Z" fill="black"/>
<path d="M207.24 345.8H188.4V364H207.24V345.8Z" fill="black"/>
<path d="M244.92 345.8H226.08V364H244.92V345.8Z" fill="black"/>
<path d="M263.76 345.8H244.92V364H263.76V345.8Z" fill="black"/>
<path d="M301.44 345.8H282.6V364H301.44V345.8Z" fill="black"/>
<path d="M320.28 345.8H301.44V364H320.28V345.8Z" fill="black"/>
<path d="M395.64 345.8H376.8V364H395.64V345.8Z" fill="black"/>
<path d="M471 345.8H452.16V364H471V345.8Z" fill="black"/>
<path d="M18.84 364H0V382.2H18.84V364Z" fill="black"/>
<path d="M56.52 364H37.68V382.2H56.52V364Z" fill="black"/>
<path d="M75.36 364H56.52V382.2H75.36V364Z" fill="black"/>
<path d="M94.2 364H75.36V382.2H94.2V364Z" fill="black"/>
<path d="M131.88 364H113.04V382.2H131.88V364Z" fill="black"/>
<path d="M244.92 364H226.08V382.2H244.92V364Z" fill="black"/>
<path d="M263.76 364H244.92V382.2H263.76V364Z" fill="black"/>
<path d="M282.6 364H263.76V382.2H282.6L282.6 364Z" fill="black"/>
<path d="M301.44 364H282.6L282.6 382.2H301.44V364Z" fill="black"/>
<path d="M320.28 364H301.44V382.2H320.28V364Z" fill="black"/>
<path d="M339.12 364H320.28V382.2H339.12V364Z" fill="black"/>
<path d="M357.96 364H339.12V382.2H357.96V364Z" fill="black"/>
<path d="M376.8 364H357.96V382.2H376.8V364Z" fill="black"/>
<path d="M395.64 364H376.8V382.2H395.64V364Z" fill="black"/>
<path d="M414.48 364H395.64V382.2H414.48V364Z" fill="black"/>
<path d="M433.32 364H414.48V382.2H433.32V364Z" fill="black"/>
<path d="M452.16 364H433.32V382.2H452.16V364Z" fill="black"/>
<path d="M471 364H452.16V382.2H471V364Z" fill="black"/>
<path d="M18.84 382.2H0V400.4H18.84V382.2Z" fill="black"/>
<path d="M56.52 382.2H37.68V400.4H56.52V382.2Z" fill="black"/>
<path d="M75.36 382.2H56.52V400.4H75.36V382.2Z" fill="black"/>
<path d="M94.2 382.2H75.36V400.4H94.2V382.2Z" fill="black"/>
<path d="M131.88 382.2H113.04V400.4H131.88V382.2Z" fill="black"/>
<path d="M169.56 382.2H150.72V400.4H169.56V382.2Z" fill="black"/>
<path d="M226.08 382.2H207.24V400.4H226.08V382.2Z" fill="black"/>
<path d="M320.28 382.2H301.44V400.4H320.28V382.2Z" fill="black"/>
<path d="M395.64 382.2H376.8V400.4H395.64V382.2Z" fill="black"/>
<path d="M414.48 382.2H395.64V400.4H414.48V382.2Z" fill="black"/>
<path d="M471 382.2H452.16V400.4H471V382.2Z" fill="black"/>
<path d="M18.84 400.4H0V418.6H18.84V400.4Z" fill="black"/>
<path d="M56.52 400.4H37.68V418.6H56.52V400.4Z" fill="black"/>
<path d="M75.36 400.4H56.52V418.6H75.36V400.4Z" fill="black"/>
<path d="M94.2 400.4H75.36V418.6H94.2V400.4Z" fill="black"/>
<path d="M131.88 400.4H113.04V418.6H131.88V400.4Z" fill="black"/>
<path d="M226.08 400.4H207.24V418.6H226.08V400.4Z" fill="black"/>
<path d="M244.92 400.4H226.08V418.6H244.92V400.4Z" fill="black"/>
<path d="M282.6 400.4H263.76V418.6H282.6V400.4Z" fill="black"/>
<path d="M320.28 400.4H301.44V418.6H320.28V400.4Z" fill="black"/>
<path d="M339.12 400.4H320.28V418.6H339.12V400.4Z" fill="black"/>
<path d="M357.96 400.4H339.12V418.6H357.96V400.4Z" fill="black"/>
<path d="M414.48 400.4H395.64V418.6H414.48V400.4Z" fill="black"/>
<path d="M433.32 400.4H414.48V418.6H433.32V400.4Z" fill="black"/>
<path d="M452.16 400.4H433.32V418.6H452.16V400.4Z" fill="black"/>
<path d="M471 400.4H452.16V418.6H471V400.4Z" fill="black"/>
<path d="M18.84 418.6H0V436.8H18.84V418.6Z" fill="black"/>
<path d="M131.88 418.6H113.04V436.8H131.88V418.6Z" fill="black"/>
<path d="M169.56 418.6H150.72V436.8H169.56V418.6Z" fill="black"/>
<path d="M188.4 418.6H169.56V436.8H188.4V418.6Z" fill="black"/>
<path d="M244.92 418.6H226.08V436.8H244.92V418.6Z" fill="black"/>
<path d="M282.6 418.6H263.76V436.8H282.6V418.6Z" fill="black"/>
<path d="M320.28 418.6H301.44V436.8H320.28V418.6Z" fill="black"/>
<path d="M357.96 418.6H339.12V436.8H357.96V418.6Z" fill="black"/>
<path d="M376.8 418.6H357.96V436.8H376.8V418.6Z" fill="black"/>
<path d="M395.64 418.6H376.8V436.8H395.64V418.6Z" fill="black"/>
<path d="M414.48 418.6H395.64V436.8H414.48V418.6Z" fill="black"/>
<path d="M433.32 418.6H414.48V436.8H433.32V418.6Z" fill="black"/>
<path d="M471 418.6H452.16V436.8H471V418.6Z" fill="black"/>
<path d="M18.84 436.8H0V455H18.84V436.8Z" fill="black"/>
<path d="M37.68 436.8H18.84V455H37.68V436.8Z" fill="black"/>
<path d="M56.52 436.8H37.68V455H56.52V436.8Z" fill="black"/>
<path d="M75.36 436.8H56.52V455H75.36V436.8Z" fill="black"/>
<path d="M94.2 436.8H75.36V455H94.2V436.8Z" fill="black"/>
<path d="M113.04 436.8H94.2V455H113.04L113.04 436.8Z" fill="black"/>
<path d="M131.88 436.8H113.04L113.04 455H131.88V436.8Z" fill="black"/>
<path d="M169.56 436.8H150.72V455H169.56V436.8Z" fill="black"/>
<path d="M244.92 436.8H226.08V455H244.92V436.8Z" fill="black"/>
<path d="M263.76 436.8H244.92V455H263.76V436.8Z" fill="black"/>
<path d="M301.44 436.8H282.6L282.6 455H301.44V436.8Z" fill="black"/>
<path d="M320.28 436.8H301.44V455H320.28V436.8Z" fill="black"/>
<path d="M339.12 436.8H320.28V455H339.12V436.8Z" fill="black"/>
<path d="M357.96 436.8H339.12V455H357.96V436.8Z" fill="black"/>
<path d="M414.48 436.8H395.64V455H414.48V436.8Z" fill="black"/>
<path d="M471 436.8H452.16V455H471V436.8Z" fill="black"/>
</svg>