<svg xmlns="http://www.w3.org/2000/svg" viewBox="0 0 25 25" width="25px" height="25px">
  <path fill="#FF0000" d="M12.5,1c-4.9,0-9.4,2.4-12.1,6.5C1,8.5,1,9.3,1,10c0,5.5,4.5,10,10,10s10-4.5,10-10c0-0.7,0-1.5-0.4-2.2C21.9,3.4,17.4,1,12.5,1z"/>
  <path fill="#FF7F00" d="M12.5,3.8c-3.5,0-6.5,1.8-8.3,4.5C4.4,10.1,4,10.5,4,11c0,4.4,3.6,8,8,8s8-3.6,8-8c0-0.5-0.4-0.9-0.8-1.7C19,5.6,16,3.8,12.5,3.8z"/>
  <path fill="#FFFF00" d="M12.5,6.5c-2.6,0-4.9,1.4-6.2,3.5c-0.2,0.3-0.5,0.5-0.5,0.9c0,3.3,2.7,6,6,6s6-2.7,6-6c0-0.4-0.2-0.7-0.5-0.9C17.4,7.9,15.1,6.5,12.5,6.5z"/>
  <path fill="#00FF00" d="M12.5,8.6c-1.6,0-3.1,0.8-4,2.1c-0.1,0.1-0.3,0.2-0.4,0.4c-0.5,0.9-0.8,1.9-0.8,3c0,2.8,2.2,5,5,5s5-2.2,5-5c0-1.1-0.3-2.1-0.8-3c-0.1-0.2-0.2-0.3-0.4-0.4C15.6,9.4,14.1,8.6,12.5,8.6z"/>
  <path fill="#0000FF" d="M12.5,10.7c-1,0-1.9,0.5-2.5,1.3c-0.1,0.1-0.2,0.2-0.3,0.3c-0.2,0.3-0.4,0.7-0.4,1.1c0,2.2,1.8,4,4,4s4-1.8,4-4c0-0.4-0.2-0.0.8-0.4-1.1c0-0.1-0.1-0.2-0.3-0.3C14.4,11.2,13.5,10.7,12.5,10.7z"/>
<path fill="#8B00FF" d="M12.5,12.8c-0.5,0-0.9,0.2-1.2,0.5c-0.1,0.1-0.2,0.1-0.3,0.2c-0.3,0.4-0.5,0.8-0.5,1.3c0,1.7,1.3,3,3,3s3-1.3,3-3c0-0.5-0.2-0.9-0.5-1.3c-0.1-0.1-0.2-0.1-0.3-0.2C13.4,13,13,12.8,12.5,12.8z"/>
</svg>